P1
# CREATOR: GIMP PNM Filter Version 1.1
140 30
0000000000000000000000000000000000000000000000000000000000000000000000
0000000000000000000000000000000000000000000000000000000000000000000000
0000000000000000000000000000000000000000000000000000000000000000000000
0000000000000000000000000000000000000000000000000000000000000000000000
0000000000000000000000000000000000000000000000000000000000000000000000
0000000000000000000000000000000000000000000000000000000000000000000000
0000000000000000000000000000000000000000000000000000000000000000000000
0000000000000000000000000000000000000000000000000000000000000000000000
0000000000000000000000000000000000000000000000000000000000000000000000
0000000000000000000000000000000000000000000000000000000000000000000000
0000000000000000000000000000000000000000000000000000000000000000000000
0000000000000000000000000000000000000000000000000000000000000000000000
0000000000000000000000000000000000000000000000000000000000000000000000
0000000000000000000000000000000000000000000000000000000000000000000000
0000000000000000000000000000000000000000000000000000000000000000000000
0000000000000000000000000000000000000000000000000000000000000000000000
0000000000000000000000000000000000000000000000000000000000000000000000
0000000000000000000000000000000000000000000000000000000000000000000000
0000000000000000000000000000000000000000000000000000000000000000000000
0000000000000110000110000000000000000000000000000000000000000000000000
0000000000000000011100000000000000000000000011110000000000000000000000
0000000000001110001110001110000000011100000000000000000000001110000000
0000000000000000111100000000000000000000001111111100000000000000000000
0000000000001110001110011110000000011100000000000000000000001110000000
0000000000000000011100000000000000000000000100111100000000000000000000
0000000000000000000000001110000000111100000000000000000000011110000000
0000000000000000111000000000000000000000000000011100000000000000000000
0000000000000000000000011100000000111000000000000000000000011100000000
0000011101110000111111100011101110111100000000111100000111111000011110
0000111100111110111110011111110000111000001111000000111100011110010000
0000011111111000111111100011111111111110000000111000001111111001111111
0001111110111110111110011111110000111000111111100001111110011100111000
0000011101111000111011110011110111001110000001110000011110011001110010
0011100100011100011100111101111000111000111011100011100100011111110000
0000011100111001111001110011100111001110000011100000111100110001111000
0111100000011100011100111100111001111001110011100111100000011111100000
0000011100111001110001110011100111011110000111000000111000110000111100
0111000000011100011100111000111001110001110011100111000000011111000000
0000111000111001110001110111101111011110001111000000111001110000011110
0111000000011100011100111000111001110001110011100111000000111111000000
0000111011110001110111100111001110011100011110000000111001110001001110
0111100100111100111100111011110001110001110111000111100100111101100000
0000111111110001111111000111001110011100111111111000111111110011111110
0111111100111000111001111111100001110001111111000111111100111101110000
0000111111000011011110000111001110011100111111111000011110110001111000
0001111000111000111001101111000000111000111100000001111000111000111000
0000111000000000000000000000000000000000000000000000000000000000000000
0000000000000000000000000000000000000000000000000000000000000000000000
0001110000000000000000000000000000000000000000000000000000000000000000
0000000000000000000000000000000000000000000000000000000000000000000000
0001110000000000000000000000000000000000000000000000000000000000000000
0000000000000000000000000000000000000000000000000000000000000000000000
0001110000000000000000000000000000000000000000000000000000000000000000
0000000000000000000000000000000000000000000000000000000000000000000000
0000000000000000000000000000000000000000000000000000000000000000000000
0000000000000000000000000000000000000000000000000000000000000000000000
0000000000000000000000000000000000000000000000000000000000000000000000
0000000000000000000000000000000000000000000000000000000000000000000000
0000000000000000000000000000000000000000000000000000000000000000000000
0000000000000000000000000000000000000000000000000000000000000000000000